<?xml version="1.0" encoding="UTF-8" standalone="no"?>
<!-- Created with Inkscape (http://www.inkscape.org/) -->

<svg
   xmlns:dc="http://purl.org/dc/elements/1.1/"
   xmlns:cc="http://creativecommons.org/ns#"
   xmlns:rdf="http://www.w3.org/1999/02/22-rdf-syntax-ns#"
   xmlns:svg="http://www.w3.org/2000/svg"
   xmlns="http://www.w3.org/2000/svg"
   xmlns:sodipodi="http://sodipodi.sourceforge.net/DTD/sodipodi-0.dtd"
   xmlns:inkscape="http://www.inkscape.org/namespaces/inkscape"
   width="313.63504mm"
   height="109.48302mm"
   viewBox="0 0 313.63504 109.48302"
   version="1.1"
   id="svg6291"
   inkscape:version="0.92.1 r15371"
   sodipodi:docname="decoration_noel_1.svg">
  <defs
     id="defs6285" />
  <sodipodi:namedview
     id="base"
     pagecolor="#ffffff"
     bordercolor="#666666"
     borderopacity="1.0"
     inkscape:pageopacity="0.0"
     inkscape:pageshadow="2"
     inkscape:zoom="0.35000001"
     inkscape:cx="437.99824"
     inkscape:cy="-244.14902"
     inkscape:document-units="mm"
     inkscape:current-layer="layer1"
     showgrid="false"
     fit-margin-top="0"
     fit-margin-left="0"
     fit-margin-right="0"
     fit-margin-bottom="0"
     inkscape:window-width="1920"
     inkscape:window-height="1001"
     inkscape:window-x="-9"
     inkscape:window-y="-9"
     inkscape:window-maximized="1" />
  <metadata
     id="metadata6288">
    <rdf:RDF>
      <cc:Work
         rdf:about="">
        <dc:format>image/svg+xml</dc:format>
        <dc:type
           rdf:resource="http://purl.org/dc/dcmitype/StillImage" />
        <dc:title></dc:title>
      </cc:Work>
    </rdf:RDF>
  </metadata>
  <g
     inkscape:label="Layer 1"
     inkscape:groupmode="layer"
     id="layer1"
     transform="translate(68.371091,-69.901342)">
    <path
       style="fill:none;stroke-width:0.001;stroke:#ff0000;stroke-opacity:1;stroke-miterlimit:4;stroke-dasharray:none"
       d="m -7.4007384,163.1459 c -8.1432286,5.20831 -18.1930886,7.19663 -27.7118386,5.77205 1.440968,-2.19728 11.029079,-2.33389 6.74166,-5.44136 -1.958941,-1.60515 -3.97795,-3.1348 -5.970471,-4.69768 -0.0494,-3.36557 0.45144,-6.81786 -0.220229,-10.11833 -3.71771,1.5295 -6.843569,7.24628 -11.177881,4.2716 -2.36536,-0.76876 -8.73489,-4.84451 -5.9209,0.48964 1.1265,2.26626 4.31682,10.49804 -0.90422,8.14128 -9.85454,-7.6821 -16.22555,-19.90459 -15.68693,-32.51656 -0.51987,-2.7447 0.7568,-1.13008 1.88519,0.12475 1.47531,1.52962 2.95062,3.05924 4.42592,4.58886 0.9148,-2.56792 1.82961,-5.13584 2.74441,-7.70376 2.61933,-0.81684 5.23867,-1.63367 7.858,-2.4505 -1.95332,-2.12148 -4.36577,-3.7375 -6.61993,-5.51481 0.0587,-3.03124 0.11737,-6.06248 0.17606,-9.09371 -2.32724,1.58553 -4.47561,3.52955 -6.96811,4.80098 2.59784,-7.16294 8.57413,-12.6403 14.5549,-17.159306 2.95727,-2.137131 6.39029,-3.415781 9.824292,-4.556001 0.0371,-2.24989 0.0741,-4.49979 0.111088,-6.74968 2.844429,0.0528 5.68884,0.10545 8.533259,0.15819 0.0759,-4.49971 0.15172,-8.99943 0.227571,-13.49913 2.660171,0.0604 5.32035,0.12081 7.980521,0.18123 -0.128489,4.49851 -0.256982,8.99703 -0.385471,13.49555 2.843882,0.0764 5.687761,0.15289 8.53164,0.22934 -0.0657,2.26861 -0.131418,4.53721 -0.19713,6.80582 15.14665157,5.106089 26.291902,20.452757 26.058251,36.513347 0.656011,13.48738 -6.6761784,26.63433 -17.8896514,33.92819 z m 7.87049997,-33.19736 c -1.271199,-2.25533 -4.30051897,-3.96154 -5.00402997,-6.25933 0.75843,-3.67118 1.746771,-7.30831 2.227352,-11.02673 -3.541652,1.41631 -6.998311,3.03638 -10.4925806,4.5651 -3.537479,-2.3459 -7.059999,-4.71437 -10.553221,-7.12574 0.627941,4.22006 1.255889,8.44013 1.883841,12.66019 -2.768992,2.52379 -5.876092,4.73297 -8.318651,7.57059 2.949141,1.16822 6.451402,1.65576 9.639379,2.52157 1.918963,-0.10125 1.984981,2.02176 2.740361,3.31725 1.14005,2.36558 1.994041,5.07151 3.482171,7.11715 2.35276,-2.69599 3.866759,-6.03582 5.7320786,-9.08667 3.598942,-0.39287 7.22578097,-0.60262 10.793923,-1.2227 -0.48868,-1.12751 -1.401543,-2.05221 -2.13062303,-3.03068 z"
       id="path4959"
       inkscape:connector-curvature="0" />
    <path
       style="opacity:1;vector-effect:none;fill:none;fill-opacity:1;stroke:#ff0000;stroke-width:0.001;stroke-linecap:butt;stroke-linejoin:miter;stroke-miterlimit:4;stroke-dasharray:none;stroke-dashoffset:0;stroke-opacity:1"
       d="m 75.541969,70.401453 c -5.12434,0.0269 -10.79909,6.06242 -10.34665,11.06858 -20.48572,4.69634 -35.766814,23.036887 -35.766814,44.947127 0,25.46756 20.645894,46.11347 46.113464,46.11347 25.467561,0 46.112951,-20.64591 46.112951,-46.11347 0,-21.9225 -15.29843,-40.270687 -35.801441,-44.954367 0.22783,-6.10595 -5.18718,-11.08822 -10.31151,-11.06134 z"
       id="path4735-6-4-4"
       inkscape:connector-curvature="0"
       sodipodi:nodetypes="zcssscz" />
    <ellipse
       style="opacity:1;vector-effect:none;fill:none;fill-opacity:1;stroke:#ff0000;stroke-width:0.001;stroke-linecap:butt;stroke-linejoin:miter;stroke-miterlimit:4;stroke-dasharray:none;stroke-dashoffset:0;stroke-opacity:1"
       id="path4823-3-5"
       cx="75.541702"
       cy="81.38681"
       rx="3.215585"
       ry="3.5913663" />
    <path
       style="color:#000000;font-style:normal;font-variant:normal;font-weight:normal;font-stretch:normal;font-size:medium;line-height:normal;font-family:sans-serif;font-variant-ligatures:normal;font-variant-position:normal;font-variant-caps:normal;font-variant-numeric:normal;font-variant-alternates:normal;font-feature-settings:normal;text-indent:0;text-align:start;text-decoration:none;text-decoration-line:none;text-decoration-style:solid;text-decoration-color:#000000;letter-spacing:normal;word-spacing:normal;text-transform:none;writing-mode:lr-tb;direction:ltr;text-orientation:mixed;dominant-baseline:auto;baseline-shift:baseline;text-anchor:start;white-space:normal;shape-padding:0;clip-rule:nonzero;display:inline;overflow:visible;visibility:visible;opacity:1;isolation:auto;mix-blend-mode:normal;color-interpolation:sRGB;color-interpolation-filters:linearRGB;solid-color:#000000;solid-opacity:1;vector-effect:none;fill:none;fill-opacity:1;fill-rule:nonzero;stroke:#ff0000;stroke-width:0.001;stroke-linecap:round;stroke-linejoin:round;stroke-miterlimit:4;stroke-dasharray:none;stroke-dashoffset:0;stroke-opacity:1;color-rendering:auto;image-rendering:auto;shape-rendering:auto;text-rendering:auto;enable-background:accumulate"
       d="m 44.474829,100.10173 c -2.01472,0.004 -2.52452,2.67201 -1.17147,3.89862 7.54601,12.29327 21.29159,19.3789 34.99403,22.51254 10.32601,2.25018 21.32783,2.41946 31.482721,-0.69885 1.91678,-1.02092 0.64957,-4.23061 -1.44767,-3.66676 -16.637461,4.48973 -35.137291,1.31649 -49.548811,-8.05308 -5.22925,-3.42911 -9.7418,-7.99018 -12.86069,-13.4181 -0.37924,-0.37649 -0.9139,-0.58856 -1.44811,-0.57437 z"
       id="path4991"
       inkscape:connector-curvature="0" />
    <path
       style="color:#000000;font-style:normal;font-variant:normal;font-weight:normal;font-stretch:normal;font-size:medium;line-height:normal;font-family:sans-serif;font-variant-ligatures:normal;font-variant-position:normal;font-variant-caps:normal;font-variant-numeric:normal;font-variant-alternates:normal;font-feature-settings:normal;text-indent:0;text-align:start;text-decoration:none;text-decoration-line:none;text-decoration-style:solid;text-decoration-color:#000000;letter-spacing:normal;word-spacing:normal;text-transform:none;writing-mode:lr-tb;direction:ltr;text-orientation:mixed;dominant-baseline:auto;baseline-shift:baseline;text-anchor:start;white-space:normal;shape-padding:0;clip-rule:nonzero;display:inline;overflow:visible;visibility:visible;opacity:1;isolation:auto;mix-blend-mode:normal;color-interpolation:sRGB;color-interpolation-filters:linearRGB;solid-color:#000000;solid-opacity:1;vector-effect:none;fill:none;fill-opacity:1;fill-rule:nonzero;stroke:#ff0000;stroke-width:0.001;stroke-linecap:round;stroke-linejoin:round;stroke-miterlimit:4;stroke-dasharray:none;stroke-dashoffset:0;stroke-opacity:1;color-rendering:auto;image-rendering:auto;shape-rendering:auto;text-rendering:auto;enable-background:accumulate"
       d="m 50.631079,92.375173 c -1.81926,-0.11265 -2.74786,2.49337 -1.26757,3.55664 11.43368,9.237007 27.13497,11.083427 41.2669,8.813227 3.93736,-0.74616 8.00018,-1.47999 11.649141,-3.14456 1.69345,-1.30872 -0.0221,-4.231538 -1.99025,-3.391327 -13.895211,4.637237 -29.896261,4.924227 -43.143951,-1.86458 -2.42013,-0.85306 -4.09311,-3.3726 -6.51427,-3.9694 z"
       id="path4991-6"
       inkscape:connector-curvature="0" />
    <path
       style="color:#000000;font-style:normal;font-variant:normal;font-weight:normal;font-stretch:normal;font-size:medium;line-height:normal;font-family:sans-serif;font-variant-ligatures:normal;font-variant-position:normal;font-variant-caps:normal;font-variant-numeric:normal;font-variant-alternates:normal;font-feature-settings:normal;text-indent:0;text-align:start;text-decoration:none;text-decoration-line:none;text-decoration-style:solid;text-decoration-color:#000000;letter-spacing:normal;word-spacing:normal;text-transform:none;writing-mode:lr-tb;direction:ltr;text-orientation:mixed;dominant-baseline:auto;baseline-shift:baseline;text-anchor:start;white-space:normal;shape-padding:0;clip-rule:nonzero;display:inline;overflow:visible;visibility:visible;opacity:1;isolation:auto;mix-blend-mode:normal;color-interpolation:sRGB;color-interpolation-filters:linearRGB;solid-color:#000000;solid-opacity:1;vector-effect:none;fill:none;fill-opacity:1;fill-rule:nonzero;stroke:#ff0000;stroke-width:0.001;stroke-linecap:round;stroke-linejoin:round;stroke-miterlimit:4;stroke-dasharray:none;stroke-dashoffset:0;stroke-opacity:1;color-rendering:auto;image-rendering:auto;shape-rendering:auto;text-rendering:auto;enable-background:accumulate"
       d="m 114.69164,129.69743 c -2.77898,1.03918 -5.048,3.3225 -7.84345,4.46124 -15.859331,7.9434 -34.552001,10.42226 -51.879161,6.49104 -5.43592,-1.26022 -10.65525,-3.45425 -15.3075,-6.52747 -2.01028,-0.82162 -3.66884,2.20445 -1.89472,3.457 12.23538,8.23688 27.72081,9.81971 42.08363,8.46375 12.93802,-1.39627 25.941281,-5.3568 36.518561,-13.09889 1.09027,-1.30021 0.0186,-3.38252 -1.67736,-3.24667 z"
       id="path4991-5"
       inkscape:connector-curvature="0" />
    <path
       style="color:#000000;font-style:normal;font-variant:normal;font-weight:normal;font-stretch:normal;font-size:medium;line-height:normal;font-family:sans-serif;font-variant-ligatures:normal;font-variant-position:normal;font-variant-caps:normal;font-variant-numeric:normal;font-variant-alternates:normal;font-feature-settings:normal;text-indent:0;text-align:start;text-decoration:none;text-decoration-line:none;text-decoration-style:solid;text-decoration-color:#000000;letter-spacing:normal;word-spacing:normal;text-transform:none;writing-mode:lr-tb;direction:ltr;text-orientation:mixed;dominant-baseline:auto;baseline-shift:baseline;text-anchor:start;white-space:normal;shape-padding:0;clip-rule:nonzero;display:inline;overflow:visible;visibility:visible;opacity:1;isolation:auto;mix-blend-mode:normal;color-interpolation:sRGB;color-interpolation-filters:linearRGB;solid-color:#000000;solid-opacity:1;vector-effect:none;fill:none;fill-opacity:1;fill-rule:nonzero;stroke:#ff0000;stroke-width:0.001;stroke-linecap:round;stroke-linejoin:round;stroke-miterlimit:4;stroke-dasharray:none;stroke-dashoffset:0;stroke-opacity:1;color-rendering:auto;image-rendering:auto;shape-rendering:auto;text-rendering:auto;enable-background:accumulate"
       d="m 42.064689,146.09782 c -1.72776,-0.003 -2.57215,2.43565 -1.21289,3.50195 10.91953,9.56767 25.93321,12.8148 40.11708,12.80555 5.84808,-0.086 11.75221,-0.59602 17.42622,-2.02686 1.977181,-0.8984 0.91426,-4.18141 -1.21428,-3.75052 -15.07837,3.11861 -31.40832,2.26087 -45.41947,-4.48426 -3.48174,-1.38422 -6.13762,-4.25119 -9.29735,-6.02671 -0.13197,-0.0197 -0.26607,-0.0261 -0.39931,-0.0192 z"
       id="path4991-6-7"
       inkscape:connector-curvature="0" />
    <g
       id="g5160"
       transform="translate(231.53467,-579.28443)"
       style="fill:none;stroke:#ff0000;stroke-opacity:1;stroke-width:0.001;stroke-miterlimit:4;stroke-dasharray:none">
      <path
         sodipodi:nodetypes="zcssscz"
         inkscape:connector-curvature="0"
         id="path4735-6-4-4-9"
         d="m -32.88367,656.03963 c -5.12433,0.0269 -10.79909,6.06242 -10.34665,11.06858 -20.485712,4.69634 -35.766814,23.03689 -35.766814,44.94713 0,25.46755 20.645902,46.11346 46.113464,46.11346 25.46756,0 46.11295,-20.64591 46.11295,-46.11346 0,-21.9225 -15.29843,-40.27069 -35.80143,-44.95437 0.22782,-6.10596 -5.18718,-11.08822 -10.31152,-11.06134 z"
         style="opacity:1;vector-effect:none;fill:none;fill-opacity:1;stroke:#ff0000;stroke-width:0.001;stroke-linecap:butt;stroke-linejoin:miter;stroke-miterlimit:4;stroke-dasharray:none;stroke-dashoffset:0;stroke-opacity:1" />
      <ellipse
         ry="3.5913663"
         rx="3.215585"
         cy="666.09766"
         cx="-33.072922"
         id="path4823-3-5-7"
         style="opacity:1;vector-effect:none;fill:none;fill-opacity:1;stroke:#ff0000;stroke-width:0.001;stroke-linecap:butt;stroke-linejoin:miter;stroke-miterlimit:4;stroke-dasharray:none;stroke-dashoffset:0;stroke-opacity:1" />
      <path
         sodipodi:nodetypes="cccccccccccccccccccccc"
         inkscape:connector-curvature="0"
         id="path5120-6"
         d="m -15.28474,731.05695 c 1.19584,-4.11631 -0.44374,-8.36073 -0.075,-12.54655 -0.0578,-3.6291 3.18037,-6.79182 1.7725,-10.4781 -0.91856,-2.87857 -2.84401,-5.3316 -3.36707,-8.36206 -0.69246,-3.16431 -2.48467,-5.96463 -5.18415,-7.79158 -5.34911,-4.36188 -15.52986,-0.82148 -19.75821,-6.37782 0.34118,-3.29893 -2.20902,-7.50553 -5.93606,-6.8233 -3.88942,1.02614 -7.045346,4.37482 -8.311086,8.13981 -1.04577,3.07267 2.58742,4.67821 5.093416,4.46325 2.79741,-0.7519 4.6586,0.40477 6.23483,2.65735 2.90816,3.33044 10.52108,-0.91882 12.40421,3.139 0.77599,4.20882 -2.85011,7.45497 -6.03507,9.51455 -3.39634,2.46511 -7.81282,4.08345 -9.91993,7.93167 m 0,0 c -2.28178,-2.74284 -4.858486,1.3927 -5.575396,3.46638 -1.91892,2.84027 -0.13117,5.74038 2.564056,7.1857 8.65913,6.22462 18.08507,11.31611 27.61971,16.05808 2.20088,0.74466 6.35624,4.22312 6.76076,-0.0393 0.80009,-2.88062 1.57516,-5.81885 1.7629,-8.80851 -2.06893,-1.38542 -5.42109,1.09523 -7.63975,-1.23265 -4.57982,-2.73845 -9.02443,-5.69989 -13.11293,-9.14156 -3.79299,-2.97645 -7.72002,-6.01486 -12.37935,-7.48811 z"
         style="fill:none;stroke:#ff0000;stroke-width:0.001;stroke-linecap:butt;stroke-linejoin:miter;stroke-miterlimit:4;stroke-dasharray:none;stroke-opacity:1" />
    </g>
  </g>
</svg>
