<?xml version="1.0" encoding="UTF-8" standalone="no"?>
<!-- Created with Inkscape (http://www.inkscape.org/) -->

<svg
   xmlns:dc="http://purl.org/dc/elements/1.1/"
   xmlns:cc="http://creativecommons.org/ns#"
   xmlns:rdf="http://www.w3.org/1999/02/22-rdf-syntax-ns#"
   xmlns:svg="http://www.w3.org/2000/svg"
   xmlns="http://www.w3.org/2000/svg"
   xmlns:sodipodi="http://sodipodi.sourceforge.net/DTD/sodipodi-0.dtd"
   xmlns:inkscape="http://www.inkscape.org/namespaces/inkscape"
   width="350.01465mm"
   height="109.98978mm"
   viewBox="0 0 350.01465 109.98978"
   version="1.1"
   id="svg7480"
   inkscape:version="0.92.1 r15371"
   sodipodi:docname="decoration_noel_4.svg">
  <defs
     id="defs7474" />
  <sodipodi:namedview
     id="base"
     pagecolor="#ffffff"
     bordercolor="#666666"
     borderopacity="1.0"
     inkscape:pageopacity="0.0"
     inkscape:pageshadow="2"
     inkscape:zoom="0.7"
     inkscape:cx="428.39081"
     inkscape:cy="173.1472"
     inkscape:document-units="mm"
     inkscape:current-layer="layer1"
     showgrid="false"
     fit-margin-top="0"
     fit-margin-left="0"
     fit-margin-right="0"
     fit-margin-bottom="0"
     inkscape:window-width="1920"
     inkscape:window-height="1001"
     inkscape:window-x="-9"
     inkscape:window-y="-9"
     inkscape:window-maximized="1" />
  <metadata
     id="metadata7477">
    <rdf:RDF>
      <cc:Work
         rdf:about="">
        <dc:format>image/svg+xml</dc:format>
        <dc:type
           rdf:resource="http://purl.org/dc/dcmitype/StillImage" />
        <dc:title></dc:title>
      </cc:Work>
    </rdf:RDF>
  </metadata>
  <g
     inkscape:label="Layer 1"
     inkscape:groupmode="layer"
     id="layer1"
     transform="translate(72.197806,-76.073559)">
    <path
       style="fill:none;stroke-width:0.001;stroke:#ff0000;stroke-opacity:1;stroke-miterlimit:4;stroke-dasharray:none"
       d="m 224.58833,170.22406 c 1.47108,-9.75935 9.43269,-16.50221 15.841,-23.32349 6.85041,-7.23754 7.04927,-4.12164 10.72589,-13.65273 1.65492,-5.79688 1.57655,-12.49652 -1.33477,-17.8804 -3.37095,-4.42379 -9.83969,-1.92033 -13.80331,0.372 -2.14371,1.07853 -8.4859,7.61227 -4.35414,1.85608 1.578,-1.43326 3.68321,-5.30313 0.43812,-2.1513 -5.22465,4.45183 -8.17935,10.73892 -10.05715,17.20308 0.69566,-9.6234 5.49857,-20.05171 14.90921,-23.83773 5.836,-2.23854 14.00088,-3.42985 18.30396,2.22873 4.2196,6.11242 4.27167,14.1734 3.18852,21.24636 -1.11297,3.86108 -4.46704,9.17561 -6.6108,11.11536 1.52707,-2.53877 2.19009,-4.28607 -0.30835,-1.10673 -6.61971,7.97327 -6.6191,4.79522 -14.68191,11.24518 -5.44177,4.50662 -10.07748,10.21379 -12.03555,17.09882 l -0.15553,0.029 z m -9.05798,-14.0168 c -7.60601,-3.05661 -15.85034,-8.26994 -17.61133,-16.883 -0.62849,-5.69078 -0.49795,-11.81865 2.99069,-16.65118 2.35895,-4.01615 7.03733,-6.3546 11.57952,-6.55206 -1.38883,1.14636 -4.66551,2.38755 -0.77208,2.08708 2.13508,-0.0974 5.66232,-0.50664 2.63514,0.80317 1.49886,0.16976 6.37715,4.47401 2.59125,2.20234 -5.36845,-2.09379 -9.7867,4.07107 -12.04293,8.24224 -1.42791,3.97691 -0.0882,10.67143 -0.26268,13.13888 -1.66764,-0.98074 1.96511,4.85051 3.29753,5.95152 3.4558,4.33392 9.16101,6.7848 13.30121,9.63659 -1.97808,-0.38112 -3.83019,-1.26807 -5.70632,-1.97558 z"
       id="path5604"
       inkscape:connector-curvature="0"
       sodipodi:nodetypes="ccccccccccccccccccccccccccccc" />
    <path
       style="opacity:1;vector-effect:none;fill:none;fill-opacity:1;stroke:#ff0000;stroke-width:0.001;stroke-linecap:butt;stroke-linejoin:miter;stroke-miterlimit:4;stroke-dasharray:none;stroke-dashoffset:0;stroke-opacity:1"
       d="m 111.38546,81.559343 c -5.12433,0.0269 -10.79909,6.06242 -10.34665,11.06858 -20.485706,4.69634 -35.766806,23.036887 -35.766806,44.947127 0,25.46756 20.6459,46.11348 46.113456,46.11348 25.46756,0 46.11295,-20.64592 46.11295,-46.11348 0,-21.9225 -15.29843,-40.270687 -35.80143,-44.954367 0.22782,-6.10595 -5.18718,-11.08822 -10.31152,-11.06134 z"
       id="path4735-6-4-4-0-9-7"
       inkscape:connector-curvature="0"
       sodipodi:nodetypes="zcssscz" />
    <ellipse
       style="opacity:1;vector-effect:none;fill:none;fill-opacity:1;stroke:#ff0000;stroke-width:0.001;stroke-linecap:butt;stroke-linejoin:miter;stroke-miterlimit:4;stroke-dasharray:none;stroke-dashoffset:0;stroke-opacity:1"
       id="path4823-3-5-5-7-7"
       cx="111.28515"
       cy="89.010323"
       rx="3.215585"
       ry="3.5913663" />
    <path
       style="fill:none;stroke:#ff0000;stroke-width:0.001;stroke-linecap:butt;stroke-linejoin:miter;stroke-miterlimit:4;stroke-dasharray:none;stroke-opacity:1"
       d="m -24.013503,116.34013 4.126013,-30.823777 0.598392,-0.87008 -0.492953,0.0824 1.151636,-8.60342 1.44449,8.38801 -0.495697,0.002 0.653489,0.91434 5.364089,30.277207 32.615166,-25.807197 -22.9572851,33.881797 40.2148871,4.7498 -40.8481881,7.44139 26.1238361,32.1402 -34.198475,-23.1156 -4.116491,41.0064 -8.074631,-40.3731 -31.665238,25.4905 22.957301,-33.8818 -40.531507,-4.5915 40.214851,-7.1247 -25.648839,-32.615097 z"
       id="path5490-4"
       inkscape:connector-curvature="0"
       sodipodi:nodetypes="ccccccccccccccccccccccc" />
    <path
       style="fill:none;stroke:#ff0000;stroke-width:0.001;stroke-linecap:butt;stroke-linejoin:miter;stroke-miterlimit:4;stroke-dasharray:none;stroke-opacity:1"
       d="m -19.344356,126.03818 c 0.610349,-3.61994 0.95581,-7.14049 1.405451,-10.49956 0.461208,3.33981 1.186801,6.7668 1.818825,10.33421 l 8.5153759,-6.73792 -5.9938359,8.84608 10.4995609,1.24011 -10.6649069,1.94285 6.8205799,8.39136 -8.9287589,-6.03516 -1.074759,10.70621 -2.108176,-10.54087 -8.267364,6.65522 5.993839,-8.84607 -10.582225,-1.19878 10.499551,-1.86016 -6.696562,-8.51536 z"
       id="path5490-4-2"
       inkscape:connector-curvature="0"
       sodipodi:nodetypes="ccccccccccccccccc" />
    <g
       id="g5602"
       transform="matrix(0.56692633,0,0,0.56692633,-13.788723,-350.54635)"
       style="stroke-width:0.0017639;stroke-miterlimit:4;stroke-dasharray:none;fill:none;stroke:#ff0000;stroke-opacity:1">
      <path
         sodipodi:nodetypes="ccsczccsc"
         inkscape:connector-curvature="0"
         id="path5535"
         d="m 206.8079,829.13797 c -1.31259,9.43789 2.11596,19.5902 -2.27711,28.37637 -5.5626,11.12514 -28.7267,33.98292 -28.7267,44.14103 0,4.55284 2.05068,5.37879 4.90453,8.23263 8.36391,8.36392 9.65785,3.52804 16.81564,3.50327 7.15779,-0.0248 5.54478,0.90061 9.28364,-1.75164 2.37994,-1.58664 5.91201,-1.37229 8.58297,-3.15293 2.56598,-1.71063 4.23595,-4.63398 7.0065,-6.48101 7.70463,-5.13642 26.79991,-11.48972 26.79991,-21.89534"
         style="fill:none;stroke:#ff0000;stroke-width:0.0017639;stroke-linecap:butt;stroke-linejoin:miter;stroke-miterlimit:4;stroke-dasharray:none;stroke-opacity:1" />
      <path
         inkscape:connector-curvature="0"
         id="path5539"
         d="m 197.34911,803.91452 c -5.87671,-0.0144 0.89833,21.46872 1.05097,21.54503 1.46244,0.73122 53.60416,-8.41216 55.0011,-9.80912 0.6423,-0.64228 1.02586,-2.92752 1.4013,-3.67842 0.73127,-1.46249 -0.0328,-11.3144 -1.22612,-11.91107 -7.62943,-3.81471 -34.98756,5.07972 -45.19201,5.07972 -2.90536,0 -11.03524,2.67733 -11.03524,-1.22614 z"
         style="fill:none;stroke:#ff0000;stroke-width:0.0017639;stroke-linecap:butt;stroke-linejoin:miter;stroke-miterlimit:4;stroke-dasharray:none;stroke-opacity:1" />
      <path
         sodipodi:nodetypes="cscssc"
         inkscape:connector-curvature="0"
         id="path5559"
         d="m 206.8079,829.13797 c 11.15097,1.99454 25.08166,-2.40977 37.20917,-2.40977 0.59413,0 4.81085,0.27149 4.81085,-0.26728 v 16.57072 c 0,9.91994 -0.25105,16.58129 -0.25105,26.31375 0,2.93764 0.50251,9.02202 0.62041,10.76496"
         style="fill:none;stroke:#ff0000;stroke-width:0.0017639;stroke-linecap:butt;stroke-linejoin:miter;stroke-miterlimit:4;stroke-dasharray:none;stroke-opacity:1" />
    </g>
    <path
       style="opacity:1;vector-effect:none;fill:none;fill-opacity:1;stroke:#ff0000;stroke-width:0.001;stroke-linecap:butt;stroke-linejoin:miter;stroke-miterlimit:4;stroke-dasharray:none;stroke-dashoffset:0;stroke-opacity:1"
       d="m 231.20392,79.858463 c -5.12434,0.0269 -10.7991,6.06242 -10.34666,11.06858 -20.48571,4.69634 -35.76681,23.036887 -35.76681,44.947127 0,25.46756 20.6459,46.11347 46.11347,46.11347 25.46755,0 46.11293,-20.64591 46.11293,-46.11347 0,-21.9225 -15.29842,-40.270687 -35.80143,-44.954367 0.22783,-6.10595 -5.18718,-11.08822 -10.3115,-11.06134 z"
       id="path4735-6-4-4-0-9-7-1"
       inkscape:connector-curvature="0"
       sodipodi:nodetypes="zcssscz" />
    <ellipse
       style="opacity:1;vector-effect:none;fill:none;fill-opacity:1;stroke:#ff0000;stroke-width:0.001;stroke-linecap:butt;stroke-linejoin:miter;stroke-miterlimit:4;stroke-dasharray:none;stroke-dashoffset:0;stroke-opacity:1"
       id="path4823-3-5-5-7-7-8"
       cx="231.10362"
       cy="87.309456"
       rx="3.215585"
       ry="3.5913663" />
  </g>
</svg>
