<?xml version="1.0" encoding="UTF-8" standalone="no"?>
<!-- Created with Inkscape (http://www.inkscape.org/) -->

<svg
   xmlns:dc="http://purl.org/dc/elements/1.1/"
   xmlns:cc="http://creativecommons.org/ns#"
   xmlns:rdf="http://www.w3.org/1999/02/22-rdf-syntax-ns#"
   xmlns:svg="http://www.w3.org/2000/svg"
   xmlns="http://www.w3.org/2000/svg"
   xmlns:sodipodi="http://sodipodi.sourceforge.net/DTD/sodipodi-0.dtd"
   xmlns:inkscape="http://www.inkscape.org/namespaces/inkscape"
   width="313.83466mm"
   height="104.85945mm"
   viewBox="0 0 313.83466 104.85945"
   version="1.1"
   id="svg6886"
   inkscape:version="0.92.1 r15371"
   sodipodi:docname="decoration_noel_3.svg">
  <defs
     id="defs6880" />
  <sodipodi:namedview
     id="base"
     pagecolor="#ffffff"
     bordercolor="#666666"
     borderopacity="1.0"
     inkscape:pageopacity="0.0"
     inkscape:pageshadow="2"
     inkscape:zoom="0.7"
     inkscape:cx="520.75324"
     inkscape:cy="153.8413"
     inkscape:document-units="mm"
     inkscape:current-layer="layer1"
     showgrid="false"
     fit-margin-top="0"
     fit-margin-left="0"
     fit-margin-right="0"
     fit-margin-bottom="0"
     inkscape:window-width="1920"
     inkscape:window-height="1001"
     inkscape:window-x="-9"
     inkscape:window-y="-9"
     inkscape:window-maximized="1" />
  <metadata
     id="metadata6883">
    <rdf:RDF>
      <cc:Work
         rdf:about="">
        <dc:format>image/svg+xml</dc:format>
        <dc:type
           rdf:resource="http://purl.org/dc/dcmitype/StillImage" />
        <dc:title></dc:title>
      </cc:Work>
    </rdf:RDF>
  </metadata>
  <g
     inkscape:label="Layer 1"
     inkscape:groupmode="layer"
     id="layer1"
     transform="translate(23.869711,-82.796465)">
    <g
       transform="translate(-43.343178,-524.52182)"
       id="g5206"
       style="fill:none;stroke:#ff0000;stroke-opacity:1;stroke-width:0.001;stroke-miterlimit:4;stroke-dasharray:none">
      <path
         style="fill:none;stroke-width:0.001;stroke:#ff0000;stroke-opacity:1;stroke-miterlimit:4;stroke-dasharray:none"
         d="m 36.584175,700.38985 c -0.794912,-5.97169 1.170772,-11.93863 2.362235,-17.75162 2.296144,-9.51255 5.557389,-18.77834 9.366266,-27.77123 -7.071933,-4.52693 -15.226871,-7.29801 -23.416217,-9.11295 -3.337626,0.43402 -8.460117,-3.53919 -3.083266,-5.18479 13.107699,-3.19718 26.723797,-2.24451 40.089062,-2.08229 6.248698,-0.16796 5.169195,-4.86589 5.875205,-8.76365 0.8629,-7.38962 -0.37937,-14.79449 -0.22118,-22.20002 4.13372,-1.08529 5.39345,4.22945 6.98104,6.96269 5.46243,11.16393 9.15239,23.08891 12.15246,35.11474 3.77677,3.10565 9.98578,-0.93306 14.51514,-1.37584 5.3638,-1.41731 10.20076,-4.76048 15.72164,-5.41702 2.0277,4.35606 -3.96021,7.57027 -6.51272,10.58248 -8.89057,7.84286 -18.19998,15.45117 -28.76082,20.94091 3.72234,9.21415 10.16781,16.93801 16.44243,24.50421 2.36548,5.13459 -6.77056,1.97392 -8.91025,0.20754 -11.01337,-6.0337 -21.36181,-13.35631 -30.683025,-21.7705 -3.140978,0.34557 -5.769476,5.3747 -8.394866,7.75378 -4.331729,4.80393 -7.040019,10.76685 -10.930964,15.87095 -0.735604,1.02509 -2.2954,0.83292 -2.59217,-0.50739 z"
         id="path5195"
         inkscape:connector-curvature="0"
         sodipodi:nodetypes="cccccccccccccccccccc" />
      <path
         sodipodi:nodetypes="cccccccccccccccccccc"
         inkscape:connector-curvature="0"
         id="path5202"
         d="m 51.670286,670.95045 c 0.295047,-2.32838 1.629409,-4.38017 2.656834,-6.45105 1.811779,-3.35436 3.962505,-6.51971 6.292329,-9.52775 -2.21303,-2.40906 -5.008763,-4.26458 -7.912638,-5.7634 -1.300331,-0.16876 -2.834218,-2.17521 -0.645199,-2.25979 5.255319,0.10058 10.289031,1.81483 15.306951,3.20638 2.129421,1.5721 2.431369,-1.31818 3.085293,-2.71601 1.060618,-2.69743 1.329833,-5.61015 2.126602,-8.38372 1.665012,0.003 1.610436,2.12993 1.936325,3.31745 0.946125,4.74868 1.148883,9.60758 1.081754,14.4358 1.113377,1.54571 3.854056,0.64259 5.604131,0.92669 2.161378,1.1e-4 4.31603,-0.77761 6.460841,-0.47531 0.330117,1.84255 -2.245212,2.45714 -3.506471,3.33761 -4.129384,2.06902 -8.39317,4.008 -12.917421,5.02444 0.484806,3.84108 2.143636,7.39192 3.75381,10.86636 0.37984,2.16943 -2.746647,0.0695 -3.376735,-0.80879 -3.547594,-3.36894 -6.716433,-7.15716 -9.389704,-11.25428 -1.217458,-0.18251 -2.708116,1.45008 -3.933802,2.08481 -2.10977,1.37822 -3.723436,3.35457 -5.697063,4.88972 -0.37911,0.31288 -0.947482,0.0852 -0.92584,-0.44915 z"
         style="fill:none;fill-opacity:1;stroke-width:0.001;stroke:#ff0000;stroke-opacity:1;stroke-miterlimit:4;stroke-dasharray:none" />
    </g>
    <ellipse
       style="opacity:1;vector-effect:none;fill:none;fill-opacity:1;stroke:#ff0000;stroke-width:0.00112598;stroke-linecap:round;stroke-linejoin:round;stroke-miterlimit:4;stroke-dasharray:none;stroke-dashoffset:0;stroke-opacity:1"
       id="path5208"
       cx="30.5842"
       cy="76.047935"
       rx="2.4554875"
       ry="3.5538814"
       transform="matrix(0.81568131,0.57850151,0.04511447,0.99898182,0,0)" />
    <path
       style="opacity:1;vector-effect:none;fill:none;fill-opacity:1;stroke:#ff0000;stroke-width:0.001;stroke-linecap:butt;stroke-linejoin:miter;stroke-miterlimit:4;stroke-dasharray:none;stroke-dashoffset:0;stroke-opacity:1"
       d="m 139.46943,83.296576 c -5.12433,0.0269 -10.79909,6.06242 -10.34665,11.06858 -20.48571,4.69634 -35.766801,23.036894 -35.766801,44.947134 0,25.46756 20.645891,46.11347 46.113451,46.11347 25.46757,0 46.11296,-20.64591 46.11296,-46.11347 0,-21.9225 -15.29843,-40.270694 -35.80144,-44.954374 0.22783,-6.10595 -5.18718,-11.08822 -10.31152,-11.06134 z"
       id="path4735-6-4-4-0"
       inkscape:connector-curvature="0"
       sodipodi:nodetypes="zcssscz" />
    <ellipse
       style="opacity:1;vector-effect:none;fill:none;fill-opacity:1;stroke:#ff0000;stroke-width:0.001;stroke-linecap:butt;stroke-linejoin:miter;stroke-miterlimit:4;stroke-dasharray:none;stroke-dashoffset:0;stroke-opacity:1"
       id="path4823-3-5-5"
       cx="139.36913"
       cy="90.74752"
       rx="3.215585"
       ry="3.5913663" />
    <path
       id="path5326"
       style="fill:none;stroke:#ff0000;stroke-width:0.001;stroke-linecap:butt;stroke-linejoin:miter;stroke-opacity:1;stroke-miterlimit:4;stroke-dasharray:none"
       d="m 141.83479,118.91434 c -0.1313,-0.72518 -1.17497,-1.09002 -1.64161,-1.50956 m -16.73965,38.44525 c 3.86674,-2.84517 10.53479,6.35132 10.64749,8.04499 m 9.42939,-13.08672 c -2.73166,0.67535 -3.11771,5.14679 -4.39197,6.38427 m -8.47,-13.36532 c -0.37764,1.03301 -5.68402,4.78802 -4.89388,5.84321 m 12.19907,-16.16747 c -0.6516,1.613 -2.97114,3.17427 -3.24553,4.8093 m 18.32605,-0.59579 c -0.9593,1.5077 -2.60809,7.42001 -4.64996,6.87116 m 9.81424,-27.20673 c 2.03067,5.32776 -1.51975,8.91303 -3.4746,12.95944 m -11.22275,-6.40579 c -0.61999,1.52313 -2.6631,2.52534 -2.43138,4.10361 m 3.05132,-24.48149 c 4.25128,0.90883 6.74551,4.83621 10.64151,6.1528 m -22.63776,8.48984 c 1.15258,-0.68536 3.17498,-0.93285 3.28662,-2.25652 m -13.10493,-6.2111 c 1.95417,-4.23075 9.15479,-5.53275 12.58129,-7.19818 m -17.14787,12.07771 c -0.28152,2.74194 -1.47836,6.23058 -1.05827,8.57273 m 0,0 c 2.99549,7.92755 8.71235,5.18487 10.8073,0.3717 m -9.74902,-8.94443 c 0.48151,3.62085 5.77805,9.15554 9.74902,8.94443 m -5.18245,-13.82396 c 2.22675,3.76444 5.81405,6.937 9.81831,8.46762 m 2.76298,-15.6658 c 0.44948,4.3462 -0.79025,9.13295 0.52364,13.40928 m 8.70963,-12.38612 c -1.73396,4.01302 -4.17889,9.50216 -3.94784,13.84808 m 1.64161,1.50957 c 3.31834,-5.90286 7.77016,-7.7155 12.94774,-9.20485 m -11.26145,14.22508 c 3.69066,-3.57617 9.39219,-6.85926 14.69735,-6.55365 m -17.12873,10.65726 c 4.56021,-1.674 11.53749,-2.54277 13.65413,2.30218 m -16.7702,3.16262 c 4.44359,-1.03554 14.14447,-1.45095 15.08053,4.21352 m -18.32606,0.59578 c 6.1028,-2.65187 10.94943,1.92828 13.67609,6.27537 m -17.73575,-0.76041 c 6.4331,-1.7648 11.06258,1.12461 12.86197,6.98105 m -17.75585,-1.13784 c 6.53337,-1.51258 10.97152,2.35515 13.36388,7.52211 m -15.68491,-1.34254 c -0.74736,5.5601 -10.98014,12.93919 2.66575,16.32343 0.5156,0.0241 2.45952,0.30178 2.82581,-0.24486 1.66177,-2.47986 3.63299,-5.46326 5.15593,-8.03358"
       inkscape:connector-curvature="0"
       sodipodi:nodetypes="cccccccccccccccccccccccccccccccccccccccccccccccccccc" />
    <path
       style="opacity:1;vector-effect:none;fill:none;fill-opacity:1;stroke:#ff0000;stroke-width:0.001;stroke-linecap:butt;stroke-linejoin:miter;stroke-miterlimit:4;stroke-dasharray:none;stroke-dashoffset:0;stroke-opacity:1"
       d="m 243.35202,85.026736 c -5.12433,0.0269 -10.79909,6.06242 -10.34665,11.06858 -20.48571,4.696344 -35.76682,23.036894 -35.76682,44.947134 0,25.46756 20.64591,46.11347 46.11347,46.11347 25.46755,0 46.11293,-20.64591 46.11293,-46.11347 0,-21.9225 -15.29842,-40.27069 -35.8014,-44.954374 0.2278,-6.10595 -5.18718,-11.08822 -10.31153,-11.06134 z"
       id="path4735-6-4-4-0-9"
       inkscape:connector-curvature="0"
       sodipodi:nodetypes="zcssscz" />
    <ellipse
       style="opacity:1;vector-effect:none;fill:none;fill-opacity:1;stroke:#ff0000;stroke-width:0.001;stroke-linecap:butt;stroke-linejoin:miter;stroke-miterlimit:4;stroke-dasharray:none;stroke-dashoffset:0;stroke-opacity:1"
       id="path4823-3-5-5-7"
       cx="243.25172"
       cy="92.477684"
       rx="3.215585"
       ry="3.5913663" />
    <path
       style="fill:none;stroke:#ff0000;stroke-width:0.001;stroke-linecap:butt;stroke-linejoin:miter;stroke-opacity:1;stroke-miterlimit:4;stroke-dasharray:none"
       d="m 224.60072,114.5538 c -0.37648,1.95182 -1.30015,8.86153 -2.79503,9.57201 -2.08213,0.98958 -5.08269,0.45024 -7.32923,0.72551 -0.99186,0.12152 -3.53706,-0.55334 -2.98479,0.27947 1.93097,2.91178 8.91784,5.07025 8.58549,6.71121 -0.39985,1.97421 -2.43935,4.73093 -2.19342,6.73806 0.128,1.04466 -0.95318,3.97184 -0.305,3.14265 1.37799,-1.76283 3.41202,-3.11996 4.93901,-4.74553 0.90697,-0.96551 2.1023,-2.00127 2.75737,-2.8393 0.0786,-0.10062 2.11017,1.99722 2.34154,2.21454 1.87088,1.75746 3.81274,3.44147 5.69073,4.90948 1.63183,1.27561 -3.17867,-9.13648 -1.47657,-8.53108 14.90424,8.73577 27.1811,16.60218 36.43887,29.17566 0,0 3.56774,5.02565 3.66326,4.55409 -1.48826,-6.9731 -5.37914,-10.53625 -7.98251,-14.46201 -1.45449,-2.19327 -3.05157,-4.25519 -4.49762,-6.43578 -0.0185,-0.0278 -0.68369,-0.86505 -0.53946,-0.88272 2.29862,-0.28165 7.19513,2.66153 9.4108,3.59108 0.47726,0.20023 3.64054,2.30287 2.90682,1.19647 -2.00318,-3.0207 -5.33553,-5.63077 -8.21094,-7.87845 -3.13122,-2.44764 -8.50623,-4.44788 -12.35758,-5.81776 -6.28714,-2.23621 -11.19099,-4.54938 -17.20859,-6.68974 -0.47534,-0.16907 5.53364,-4.11659 5.44892,-4.808 -0.004,-0.0362 -7.91427,0.27174 -9.28046,-0.41553 -0.12793,-0.0644 -4.79459,-8.96 -5.34944,-9.86796"
       id="path5420-7"
       inkscape:connector-curvature="0"
       sodipodi:nodetypes="ccsccsccscccccscsccccsscc" />
  </g>
</svg>
