<?xml version="1.0" encoding="UTF-8" standalone="no"?>
<!-- Created with Inkscape (http://www.inkscape.org/) -->

<svg
   xmlns:dc="http://purl.org/dc/elements/1.1/"
   xmlns:cc="http://creativecommons.org/ns#"
   xmlns:rdf="http://www.w3.org/1999/02/22-rdf-syntax-ns#"
   xmlns:svg="http://www.w3.org/2000/svg"
   xmlns="http://www.w3.org/2000/svg"
   xmlns:sodipodi="http://sodipodi.sourceforge.net/DTD/sodipodi-0.dtd"
   xmlns:inkscape="http://www.inkscape.org/namespaces/inkscape"
   width="304.45026mm"
   height="105.43477mm"
   viewBox="0 0 304.45026 105.43477"
   version="1.1"
   id="svg6291"
   sodipodi:docname="decoration_noel_2.svg"
   inkscape:version="0.92.1 r15371">
  <defs
     id="defs6285" />
  <sodipodi:namedview
     id="base"
     pagecolor="#ffffff"
     bordercolor="#666666"
     borderopacity="1.0"
     inkscape:pageopacity="0.0"
     inkscape:pageshadow="2"
     inkscape:zoom="0.5"
     inkscape:cx="745.27636"
     inkscape:cy="-83.652949"
     inkscape:document-units="mm"
     inkscape:current-layer="layer1"
     showgrid="false"
     fit-margin-top="0"
     fit-margin-left="0"
     fit-margin-right="0"
     fit-margin-bottom="0"
     inkscape:window-width="1920"
     inkscape:window-height="1001"
     inkscape:window-x="-9"
     inkscape:window-y="-9"
     inkscape:window-maximized="1" />
  <metadata
     id="metadata6288">
    <rdf:RDF>
      <cc:Work
         rdf:about="">
        <dc:format>image/svg+xml</dc:format>
        <dc:type
           rdf:resource="http://purl.org/dc/dcmitype/StillImage" />
        <dc:title></dc:title>
      </cc:Work>
    </rdf:RDF>
  </metadata>
  <g
     inkscape:label="Layer 1"
     inkscape:groupmode="layer"
     id="layer1"
     transform="translate(63.441736,-72.143989)">
    <path
       style="opacity:1;vector-effect:none;fill:none;fill-opacity:1;stroke:#ff0000;stroke-width:0.001;stroke-linecap:butt;stroke-linejoin:miter;stroke-miterlimit:4;stroke-dasharray:none;stroke-dashoffset:0;stroke-opacity:1"
       d="m -16.828276,72.644099 c -5.12434,0.02688 -10.79909,6.062414 -10.34666,11.068574 -20.4857,4.696341 -35.7668,23.036897 -35.7668,44.947127 0,25.46756 20.6459,46.11347 46.11346,46.11347 25.4675531,0 46.112946,-20.64592 46.112946,-46.11347 0,-21.9225 -15.298425,-40.270682 -35.8014359,-44.95436 0.22783,-6.105966 -5.1871701,-11.08822 -10.3115101,-11.061341 z"
       id="path4735-6"
       inkscape:connector-curvature="0"
       sodipodi:nodetypes="zcssscz" />
    <g
       id="g4807"
       transform="matrix(0.76853473,0,0,0.76853473,-470.47926,-27.081081)"
       style="stroke:#ff0000;stroke-width:0.00130118;stroke-miterlimit:4;stroke-dasharray:none;stroke-opacity:1">
      <path
         id="path4817"
         style="fill:none;stroke:#ff0000;stroke-width:0.00130118;stroke-linecap:butt;stroke-linejoin:miter;stroke-miterlimit:4;stroke-dasharray:none;stroke-opacity:1"
         d="m 558.04303,193.6617 c -2.23239,-1.85311 -1.86625,-4.53474 -0.60312,-6.74505 m 8.15265,2.59787 c -0.93491,-1.75758 -5.22013,-5.21435 -8.15265,-2.59787 m 61.61619,9.32317 c 0.27476,1.7118 0.0852,3.86971 1.08949,5.37626 1.16427,1.74647 2.95424,2.41504 4.28651,3.95775 4.00471,4.63724 -1.667,5.36983 -4.72361,4.90838 m 3.13099,-34.96083 c 2.62945,1.48303 3.99332,5.8624 7.08246,7.14963 1.36602,0.56921 3.53147,-1.10256 3.62358,-0.87883 0.36355,0.88294 -5.90234,4.24904 -6.55856,8.2698 -0.1127,0.69055 4.04581,0.37957 4.81084,0.26738 2.38599,-0.3499 6.63763,-1.71804 1.71665,1.43918 -1.94887,1.25038 -3.44219,3.11936 -5.7618,3.75191 -2.88777,0.7875 -5.95536,0.37677 -8.69655,0.71937 m -2.85759,-5.82346 c 4.71224,-4.14362 7.66674,-8.68819 6.64097,-14.89498 m -10.88594,-6.7077 c 1.18624,1.14084 -0.94144,3.32148 -1.00237,5.01128 -0.13097,3.63166 0.98301,15.4091 5.24734,16.5914 m -4.24497,-21.60268 c -1.41046,1.00456 -7.26549,2.14745 -6.22182,4.68222 m -4.74103,-18.5882 c 1.2908,4.72694 0.31456,15.41729 4.74103,18.5882 m -4.74103,-18.5882 c -2.40696,-0.44673 -5.44892,3.77901 -5.79784,5.8361 -0.18031,1.06316 -0.28167,2.16892 -0.31874,3.19694 m 0,0 c -5.09358,-3.53503 -15.22995,-5.22564 -19.29471,-3.55207 m 0,0 c 5.63624,2.53394 30.42354,26.94839 24.38242,32.16545 -7.30998,6.31286 -24.22303,-2.28019 -30.77702,-3.26965 m 0,0 c -1.32408,-0.36639 -2.49196,-0.17579 -3.59224,0.23005 m -7.54953,4.14718 c -4.43001,4.28558 -2.12127,10.91528 -1.71853,16.75731 0.32822,4.76093 -6.5187,15.71322 -9.67352,18.69836 m 16.49861,5.57194 c -6.02948,-0.64387 -11.28072,-2.54514 -16.49861,-5.57194 m 30.19134,-7.83233 c 7.45561,5.47953 3.37391,13.5422 1.14054,20.88817 m -14.83327,-7.4839 c -1.23998,-9.94223 4.15437,-15.55296 13.69273,-13.40427 m 1.14054,20.88817 c 3.60282,1.7388 7.616,2.50351 11.12246,3.18694 m 30.60317,-34.87794 c -16.85853,-6.94545 -25.58213,20.8435 -30.60317,34.87794"
         inkscape:connector-curvature="0"
         sodipodi:nodetypes="ccccccsccscccccccccccccccccccccscccccccccccccccc" />
    </g>
    <ellipse
       style="opacity:1;vector-effect:none;fill:none;fill-opacity:1;stroke:#ff0000;stroke-width:0.001;stroke-linecap:butt;stroke-linejoin:miter;stroke-miterlimit:4;stroke-dasharray:none;stroke-dashoffset:0;stroke-opacity:1"
       id="path4823"
       cx="-16.828537"
       cy="83.62944"
       rx="3.215585"
       ry="3.5913663" />
    <path
       style="opacity:1;vector-effect:none;fill:none;fill-opacity:1;stroke:#ff0000;stroke-width:0.001;stroke-linecap:butt;stroke-linejoin:miter;stroke-miterlimit:4;stroke-dasharray:none;stroke-dashoffset:0;stroke-opacity:1"
       d="m 81.823546,74.949592 c -5.124331,0.0269 -10.799091,6.06242 -10.346651,11.06858 -20.485711,4.69634 -35.766809,23.036888 -35.766809,44.947128 0,25.46755 20.645898,46.11346 46.11346,46.11346 25.467564,0 46.112954,-20.64591 46.112954,-46.11346 0,-21.9225 -15.29843,-40.270688 -35.801435,-44.954368 0.227822,-6.10596 -5.187181,-11.08822 -10.311519,-11.06134 z"
       id="path4735-6-4"
       inkscape:connector-curvature="0"
       sodipodi:nodetypes="zcssscz" />
    <ellipse
       style="opacity:1;vector-effect:none;fill:none;fill-opacity:1;stroke:#ff0000;stroke-width:0.001;stroke-linecap:butt;stroke-linejoin:miter;stroke-miterlimit:4;stroke-dasharray:none;stroke-dashoffset:0;stroke-opacity:1"
       id="path4823-3"
       cx="81.823288"
       cy="85.934937"
       rx="3.215585"
       ry="3.5913663" />
    <ellipse
       style="opacity:1;vector-effect:none;fill:none;fill-opacity:1;stroke:#ff0000;stroke-width:0.001;stroke-linecap:butt;stroke-linejoin:miter;stroke-miterlimit:4;stroke-dasharray:none;stroke-dashoffset:0;stroke-opacity:1"
       id="path4847"
       cx="110.51313"
       cy="64.412766"
       rx="5.8113837"
       ry="17.434153"
       transform="rotate(32.295191)" />
    <ellipse
       style="opacity:1;vector-effect:none;fill:none;fill-opacity:1;stroke:#ff0000;stroke-width:0.001;stroke-linecap:butt;stroke-linejoin:miter;stroke-miterlimit:4;stroke-dasharray:none;stroke-dashoffset:0;stroke-opacity:1"
       id="path4847-4"
       cx="182.68253"
       cy="33.12011"
       rx="2.8311069"
       ry="8.4933214"
       transform="rotate(45.443271)" />
    <g
       id="g4955"
       transform="matrix(0.93648019,0,0,0.93648019,-78.495706,-82.736206)"
       style="stroke:#ff0000;stroke-width:0.00106783;stroke-miterlimit:4;stroke-dasharray:none;stroke-opacity:1">
      <g
         style="stroke:#ff0000;stroke-width:0.00070428;stroke-miterlimit:4;stroke-dasharray:none;stroke-opacity:1"
         transform="matrix(1.5161929,0,0,1.5161929,-662.63112,-223.77809)"
         id="g4917">
        <path
           inkscape:connector-curvature="0"
           id="path4876-0"
           style="fill:none;stroke:#ff0000;stroke-width:0.00070428;stroke-linecap:butt;stroke-linejoin:miter;stroke-miterlimit:4;stroke-dasharray:none;stroke-opacity:1"
           d="m 626.94315,258.93776 c 0,0 -9.35807,0.72087 -6.25884,5.06913 -2.0208,8.46875 -4.5562,11.00764 -10.31614,14.6076 m 0,0 c -1.52041,0.50114 -2.76045,1.03603 -2.1268,2.21797 0.53293,0.99406 2.68296,1.83987 6.18309,2.56046 m 0,0 c -2.59353,3.01406 -5.49308,5.86127 -7.99041,7.20282 -5.57471,2.99468 -8.67467,2.43854 1.44232,7.497 m 0,0 c -2.10253,2.86055 -5.75195,6.53941 -8.5044,7.93736 -2.52995,1.27659 -4.82909,1.61345 -4.56147,2.20406 m 1.57327,22.19819 c -2.71113,0.0763 -10.28618,-8.02177 -8.01809,-10.28987 2.53431,-2.53429 8.8569,1.52964 12.56167,-5.87992 0.031,-0.0621 -5.66539,-2.41663 -6.11685,-6.0284"
           sodipodi:nodetypes="cccccccccccccccc" />
        <path
           d="m 626.94315,258.93776 c -0.0496,0.4012 5.12474,0.72087 2.02551,5.06913 2.0208,8.46875 4.5562,11.00764 10.31614,14.6076 m 0,0 c 1.52041,0.50114 2.76045,1.03603 2.1268,2.21797 -0.53293,0.99406 -2.68296,1.83987 -6.18309,2.56046 m 0,0 c 2.59353,3.01406 5.49308,5.86127 7.99041,7.20282 5.57471,2.99468 8.67467,2.43854 -1.44232,7.497 m 0,0 c 2.10253,2.86055 5.75195,6.53941 8.5044,7.93736 2.52995,1.27659 4.82909,1.61345 4.56147,2.20406 m -1.57327,22.19819 c 2.71113,0.0763 10.28618,-8.02177 8.01809,-10.28987 -2.53431,-2.53429 -8.8569,1.52964 -12.56167,-5.87992 -0.031,-0.0621 5.66539,-2.41663 6.11685,-6.0284"
           style="fill:none;stroke:#ff0000;stroke-width:0.00070428;stroke-linecap:butt;stroke-linejoin:miter;stroke-miterlimit:4;stroke-dasharray:none;stroke-opacity:1"
           id="path4907"
           inkscape:connector-curvature="0" />
        <path
           style="fill:none;stroke:#ff0000;stroke-width:0.00070428;stroke-linecap:butt;stroke-linejoin:miter;stroke-miterlimit:4;stroke-dasharray:none;stroke-opacity:1"
           d="M 596.38376,330.43235 H 653.2692"
           id="path4909"
           inkscape:connector-curvature="0"
           sodipodi:nodetypes="cc" />
        <ellipse
           style="opacity:1;vector-effect:none;fill:none;fill-opacity:1;stroke:#ff0000;stroke-width:0.00070428;stroke-linecap:butt;stroke-linejoin:miter;stroke-miterlimit:4;stroke-dasharray:none;stroke-dashoffset:0;stroke-opacity:1"
           id="path4911"
           cx="625.03088"
           cy="263.14752"
           rx="1.3029025"
           ry="1.2244488" />
      </g>
      <path
         inkscape:connector-curvature="0"
         id="path4929"
         d="m 284.99403,193.24554 c 0.11724,5.08201 -3.29261,7.52413 -6.99254,9.63839"
         style="fill:none;stroke:#ff0000;stroke-width:0.00106783;stroke-linecap:butt;stroke-linejoin:miter;stroke-miterlimit:4;stroke-dasharray:none;stroke-opacity:1" />
      <path
         sodipodi:nodetypes="cc"
         inkscape:connector-curvature="0"
         id="path4931"
         d="m 281.97024,212.52232 c 0.39097,6.20063 -6.87577,9.16289 -11.412,11.431"
         style="fill:none;stroke:#ff0000;stroke-width:0.00106783;stroke-linecap:butt;stroke-linejoin:miter;stroke-miterlimit:4;stroke-dasharray:none;stroke-opacity:1" />
      <path
         sodipodi:nodetypes="cc"
         inkscape:connector-curvature="0"
         id="path4933"
         d="m 279.44461,232.9386 c -0.0238,5.29935 -14.7251,12.55004 -18.24244,14.55995"
         style="fill:none;stroke:#ff0000;stroke-width:0.00106783;stroke-linecap:butt;stroke-linejoin:miter;stroke-miterlimit:4;stroke-dasharray:none;stroke-opacity:1" />
      <path
         sodipodi:nodetypes="cc"
         inkscape:connector-curvature="0"
         id="path4935"
         d="m 276.89212,255.42262 c -4.22865,5.31467 -14.99884,8.99511 -19.80576,11.39858"
         style="fill:none;stroke:#ff0000;stroke-width:0.00106783;stroke-linecap:butt;stroke-linejoin:miter;stroke-miterlimit:4;stroke-dasharray:none;stroke-opacity:1" />
      <path
         inkscape:connector-curvature="0"
         id="path4937"
         d="m 290.85267,202.69494 c 0.98846,4.06546 4.95671,8.28225 7.37053,10.39435"
         style="fill:none;stroke:#ff0000;stroke-width:0.00106783;stroke-linecap:butt;stroke-linejoin:miter;stroke-miterlimit:4;stroke-dasharray:none;stroke-opacity:1" />
      <path
         inkscape:connector-curvature="0"
         id="path4939"
         d="m 289.15177,224.61756 c 3.04131,6.03093 8.89603,9.10014 14.36309,11.1503"
         style="fill:none;stroke:#ff0000;stroke-width:0.00106783;stroke-linecap:butt;stroke-linejoin:miter;stroke-miterlimit:4;stroke-dasharray:none;stroke-opacity:1" />
      <path
         inkscape:connector-curvature="0"
         id="path4941"
         d="m 290.2857,246.91815 c 2.94335,8.05184 12.01025,16.0871 20.41072,17.95387"
         style="fill:none;stroke:#ff0000;stroke-width:0.00106783;stroke-linecap:butt;stroke-linejoin:miter;stroke-miterlimit:4;stroke-dasharray:none;stroke-opacity:1" />
    </g>
  </g>
</svg>
